# xmcd CD database file
#
# Track frame offsets:
#	150
#	2921
#	24874
#	40797
#	55764
#	83688
#	101276
#	125855
#	142393
#	158407
#	185903
#	206330
#	221605
#	247981
#	262316
#	276662
#	291818
#	309990
#
# Disc length: 4371 seconds
#
# Revision: 0
# Processed by: cddbd v1.5.1PL2 Copyright (c) Steve Scherf et al.
# Submitted via: CDex 1.51
#
DISCID=09111112
DTITLE=Various Artist - Deep Heat The 2nd Attack CD 1
DYEAR=1999
DGENRE=Mix
TTITLE0=Intro
TTITLE1=Soon - Snata
TTITLE2=Paffendorf - Terminator 2 Theme
TTITLE3=United Deejays - Too Much Rain
TTITLE4=Miss Jane - It´s a fine Day
TTITLE5=Tina Cousins - Pray
TTITLE6=Technotronic - Rockin´over the Beat 
TTITLE7=Bomfunk MCs - Uprocking Beats
TTITLE8=Mantronik - Strickly Buisiness
TTITLE9=Groove Gangsters - Rock da Party
TTITLE10=2 Fabiola - Feel the Vibe
TTITLE11=K.K.Project - Set me Free
TTITLE12=Sash! - Colour the World 
TTITLE13=Cartoons - Doodah
TTITLE14=C.C.Catch - I can lose my Heart tonight
TTITLE15=Toyya - Uh Ah
TTITLE16=Blackstreet - Take me There
TTITLE17=Jay-Z - Hard knock Life
EXTD=YEAR: 1999
EXTT0=
EXTT1=
EXTT2=
EXTT3=
EXTT4=
EXTT5=
EXTT6=
EXTT7=
EXTT8=
EXTT9=
EXTT10=
EXTT11=
EXTT12=
EXTT13=
EXTT14=
EXTT15=
EXTT16=
EXTT17=
PLAYORDER=
